<?xml version="1.0" standalone="no"?>
<!DOCTYPE svg PUBLIC "-//W3C//DTD SVG 20010904//EN"
 "http://www.w3.org/TR/2001/REC-SVG-20010904/DTD/svg10.dtd">
<svg version="1.0" xmlns="http://www.w3.org/2000/svg"
 width="1308.000000pt" height="1308.000000pt" viewBox="0 0 1308.000000 1308.000000"
 preserveAspectRatio="xMidYMid meet">
<metadata>
Created by potrace 1.11, written by Peter Selinger 2001-2013
</metadata>
<g transform="translate(0.000000,1308.000000) scale(0.100000,-0.100000)"
fill="#000000" stroke="none">
<path d="M2703 12626 c-8 -4 -21 -9 -29 -10 -7 -1 -25 -12 -38 -23 -17 -15
-27 -18 -34 -11 -8 8 -9 4 -5 -12 5 -19 3 -22 -10 -17 -11 4 -14 2 -11 -7 3
-7 -1 -20 -8 -27 -17 -17 -53 -91 -50 -101 1 -5 -3 -8 -8 -8 -5 0 -9 -3 -8 -7
1 -5 -6 -23 -15 -40 -10 -18 -14 -33 -10 -33 5 0 2 -4 -5 -8 -7 -5 -15 -19
-17 -32 -2 -13 -9 -27 -15 -30 -6 -4 -13 -13 -14 -21 -2 -8 -9 -27 -16 -44 -7
-16 -13 -33 -12 -37 1 -5 -2 -8 -8 -8 -5 0 -10 -7 -10 -15 0 -8 -4 -15 -10
-15 -5 0 -7 -6 -4 -14 3 -7 -1 -20 -8 -27 -7 -8 -14 -21 -16 -29 -2 -8 -7 -17
-10 -20 -8 -5 -14 -27 -15 -47 0 -7 -4 -13 -8 -13 -4 0 -6 -8 -4 -17 1 -10 -2
-24 -8 -30 -5 -7 -5 -13 0 -13 5 0 9 -17 8 -37 0 -21 5 -44 12 -51 7 -8 11
-17 8 -22 -2 -4 15 -28 39 -53 45 -45 79 -64 481 -257 77 -37 214 -104 305
-148 311 -150 495 -239 553 -266 l57 -28 0 -4426 c0 -2435 3 -4438 7 -4452 14
-46 67 -120 86 -120 10 0 16 -4 13 -9 -5 -8 45 -28 89 -36 11 -2 20 -4 20 -5
0 -1 21 -3 48 -3 26 -1 47 1 47 4 0 4 15 4 33 0 17 -4 46 -4 64 0 18 3 35 4
38 1 7 -7 84 -6 91 1 3 3 19 1 36 -4 17 -4 36 -5 42 -2 6 4 24 6 41 4 61 -7
70 -7 91 0 11 4 28 2 38 -3 14 -8 17 -7 12 1 -5 7 1 10 16 8 52 -8 137 46 176
113 l27 45 5 4193 5 4193 90 -44 c89 -44 221 -108 525 -255 257 -124 446 -215
620 -300 91 -44 235 -113 320 -155 85 -41 250 -121 365 -177 116 -56 255 -124
310 -150 55 -26 195 -94 310 -150 116 -56 255 -124 310 -150 55 -26 204 -98
330 -160 127 -62 241 -116 255 -122 l25 -10 -34 -26 c-18 -15 -53 -40 -76 -57
-52 -37 -478 -346 -595 -432 -47 -35 -95 -70 -107 -79 -44 -32 -198 -144 -218
-158 -244 -177 -342 -247 -351 -255 -14 -11 -420 -307 -546 -398 -54 -39 -111
-79 -125 -90 -14 -10 -37 -27 -52 -39 -14 -11 -65 -48 -113 -82 -209 -150
-293 -293 -287 -492 4 -135 31 -194 213 -470 78 -118 194 -294 258 -390 63
-96 231 -350 373 -565 142 -214 331 -500 420 -635 89 -135 264 -400 390 -590
126 -190 301 -455 390 -590 89 -135 258 -391 377 -570 118 -179 268 -406 333
-505 65 -99 190 -287 277 -418 87 -130 158 -241 158 -246 0 -5 4 -11 8 -13 4
-2 37 -48 73 -103 139 -211 542 -820 691 -1045 86 -129 167 -244 180 -255 36
-30 84 -55 92 -48 3 3 6 2 6 -3 0 -15 100 -9 140 8 19 8 40 17 45 19 6 2 17 9
25 16 8 7 53 39 100 72 47 33 90 64 96 69 18 16 59 36 67 34 5 -1 6 2 2 8 -3
5 2 13 12 17 10 4 20 9 23 13 3 3 37 28 75 55 39 27 72 53 73 57 2 4 8 6 13 2
5 -3 9 -2 8 3 -4 15 13 43 22 37 5 -3 9 1 9 8 0 7 6 24 13 38 8 14 13 36 12
48 -1 12 2 22 7 22 5 0 7 4 4 9 -3 5 -8 26 -12 47 -10 63 17 20 -466 749 -352
532 -496 751 -779 1180 -131 198 -247 374 -259 390 -11 17 -107 161 -212 320
-105 160 -274 416 -376 570 -211 319 -478 723 -767 1160 -109 165 -242 366
-296 448 -55 81 -99 150 -99 152 0 3 -5 11 -11 18 -14 16 -500 750 -505 762
-2 6 15 23 39 39 23 17 83 60 132 96 50 37 142 105 206 151 175 126 505 365
584 424 39 28 162 118 275 200 113 82 246 179 295 215 124 92 480 351 515 375
85 59 426 311 435 321 6 6 38 30 71 52 75 50 164 138 164 161 0 5 4 11 8 13 5
2 22 35 37 73 38 96 44 247 13 345 -12 36 -24 67 -28 70 -4 3 -14 19 -23 35
-51 98 -139 163 -380 280 -95 45 -253 122 -352 170 -226 110 -449 218 -630
305 -77 37 -221 107 -320 155 -210 102 -433 210 -630 305 -77 37 -225 109
-330 160 -104 51 -253 123 -330 160 -77 37 -216 105 -310 150 -93 45 -233 113
-310 150 -77 37 -225 109 -330 160 -104 51 -239 116 -300 145 -60 29 -200 96
-310 150 -110 53 -267 130 -350 170 -82 40 -231 112 -330 160 -99 48 -234 113
-300 145 -66 32 -203 98 -305 147 -102 50 -257 125 -345 168 -88 43 -239 116
-335 162 -189 92 -303 146 -335 158 -29 10 -114 12 -132 1z"/>
</g>
</svg>
